<svg xmlns="http://www.w3.org/2000/svg" xmlns:xlink="http://www.w3.org/1999/xlink" version="1.1" width="256" height="256" viewBox="0 0 256 256" xml:space="preserve">
	<g style="stroke: none; stroke-width: 0; stroke-dasharray: none; stroke-linecap: butt; stroke-linejoin: miter; stroke-miterlimit: 10; fill: none; fill-rule: nonzero; opacity: 1;" transform="translate(1.4065934065934016 1.4065934065934016) scale(2.81 2.81)">
		<polygon points="67.17,7.63 54.67,7.63 7.61,7.63 7.61,82.36 15.21,82.36 15.21,15.24 67.17,15.24 " style="stroke: none; stroke-width: 1; stroke-dasharray: none; stroke-linecap: butt; stroke-linejoin: miter; stroke-miterlimit: 10; fill: rgb(60,135,208); fill-rule: nonzero; opacity: 1;" transform="  matrix(1 0 0 1 0 0) " />
		<polygon points="59.56,0.03 47.06,0.03 0,0.03 0,74.76 7.61,74.76 7.61,7.63 59.56,7.63 " style="stroke: none; stroke-width: 1; stroke-dasharray: none; stroke-linecap: butt; stroke-linejoin: miter; stroke-miterlimit: 10; fill: rgb(25,102,165); fill-rule: nonzero; opacity: 1;" transform="  matrix(1 0 0 1 0 0) " />
		<path d="M 62.53 60.324 c -7.608 -5.678 -9.172 -16.448 -3.494 -24.056 c 3.794 -5.083 9.859 -7.451 15.737 -6.781 V 15.243 H 15.215 v 74.73 h 47.059 V 77.474 h 12.498 V 63.609 C 70.572 64.093 66.186 63.053 62.53 60.324 z" style="stroke: none; stroke-width: 1; stroke-dasharray: none; stroke-linecap: butt; stroke-linejoin: miter; stroke-miterlimit: 10; fill: rgb(200,239,254); fill-rule: nonzero; opacity: 1;" transform=" matrix(1 0 0 1 0 0) " stroke-linecap="round" />
		<circle cx="72.809" cy="46.549" r="17.189" style="stroke: none; stroke-width: 1; stroke-dasharray: none; stroke-linecap: butt; stroke-linejoin: miter; stroke-miterlimit: 10; fill: rgb(254,119,1); fill-rule: nonzero; opacity: 1;" transform="  matrix(1 0 0 1 0 0) " />
		<path d="M 72.811 46.549 l 16.69 4.124 c 1.605 -6.508 -0.7 -13.638 -6.409 -17.899 c -1.198 -0.894 -2.48 -1.588 -3.802 -2.127 L 72.811 46.549 z" style="stroke: none; stroke-width: 1; stroke-dasharray: none; stroke-linecap: butt; stroke-linejoin: miter; stroke-miterlimit: 10; fill: rgb(238,97,97); fill-rule: nonzero; opacity: 1;" transform=" matrix(1 0 0 1 0 0) " stroke-linecap="round" />
		<path d="M 72.811 46.549 l -14.877 8.609 c 1.132 1.959 2.668 3.727 4.596 5.166 c 7.608 5.678 18.378 4.114 24.056 -3.494 c 1.417 -1.898 2.382 -3.993 2.915 -6.157 L 72.811 46.549 z" style="stroke: none; stroke-width: 1; stroke-dasharray: none; stroke-linecap: butt; stroke-linejoin: miter; stroke-miterlimit: 10; fill: rgb(254,151,56); fill-rule: nonzero; opacity: 1;" transform=" matrix(1 0 0 1 0 0) " stroke-linecap="round" />
		<rect x="29.21" y="51.03" rx="0" ry="0" width="9.59" height="31.5" style="stroke: none; stroke-width: 1; stroke-dasharray: none; stroke-linecap: butt; stroke-linejoin: miter; stroke-miterlimit: 10; fill: rgb(254,119,1); fill-rule: nonzero; opacity: 1;" transform=" matrix(-1 -1.224647e-16 1.224647e-16 -1 68.0125 133.5628) " />
		<rect x="38.8" y="62.77" rx="0" ry="0" width="9.59" height="19.76" style="stroke: none; stroke-width: 1; stroke-dasharray: none; stroke-linecap: butt; stroke-linejoin: miter; stroke-miterlimit: 10; fill: rgb(254,151,56); fill-rule: nonzero; opacity: 1;" transform=" matrix(-1 -1.224647e-16 1.224647e-16 -1 87.1839 145.3004) " />
		<polygon points="62.27,77.47 74.77,77.47 62.27,89.97 " style="stroke: none; stroke-width: 1; stroke-dasharray: none; stroke-linecap: butt; stroke-linejoin: miter; stroke-miterlimit: 10; fill: rgb(179,218,254); fill-rule: nonzero; opacity: 1;" transform="  matrix(1 0 0 1 0 0) " />
		<rect x="23.93" y="81.51" rx="0" ry="0" width="29.74" height="2.04" style="stroke: none; stroke-width: 1; stroke-dasharray: none; stroke-linecap: butt; stroke-linejoin: miter; stroke-miterlimit: 10; fill: rgb(179,218,254); fill-rule: nonzero; opacity: 1;" transform=" matrix(1 0 0 1 0 0) " />
		<rect x="23.93" y="27.17" rx="0" ry="0" width="25" height="2.04" style="stroke: none; stroke-width: 1; stroke-dasharray: none; stroke-linecap: butt; stroke-linejoin: miter; stroke-miterlimit: 10; fill: rgb(179,218,254); fill-rule: nonzero; opacity: 1;" transform=" matrix(1 0 0 1 0 0) " />
		<rect x="23.93" y="36.95" rx="0" ry="0" width="20.65" height="2.04" style="stroke: none; stroke-width: 1; stroke-dasharray: none; stroke-linecap: butt; stroke-linejoin: miter; stroke-miterlimit: 10; fill: rgb(179,218,254); fill-rule: nonzero; opacity: 1;" transform=" matrix(1 0 0 1 0 0) " />
	</g>
</svg>
