<svg id="visual" viewBox="0 0 960 540" width="960" height="540" xmlns="http://www.w3.org/2000/svg" xmlns:xlink="http://www.w3.org/1999/xlink" version="1.1">
	<path d="M0 129L22.8 157.5C45.7 186 91.3 243 137 252.2C182.7 261.3 228.3 222.7 274 214.2C319.7 205.7 365.3 227.3 411.2 231.8C457 236.3 503 223.7 548.8 216.2C594.7 208.7 640.3 206.3 686 195.5C731.7 184.7 777.3 165.3 823 157.2C868.7 149 914.3 152 937.2 153.5L960 155L960 541L937.2 541C914.3 541 868.7 541 823 541C777.3 541 731.7 541 686 541C640.3 541 594.7 541 548.8 541C503 541 457 541 411.2 541C365.3 541 319.7 541 274 541C228.3 541 182.7 541 137 541C91.3 541 45.7 541 22.8 541L0 541Z" fill="#e6f5ff">
	</path>
	<path d="M0 378L22.8 368C45.7 358 91.3 338 137 326.2C182.7 314.3 228.3 310.7 274 303.8C319.7 297 365.3 287 411.2 294.7C457 302.3 503 327.7 548.8 328.8C594.7 330 640.3 307 686 296.8C731.7 286.7 777.3 289.3 823 299.3C868.7 309.3 914.3 326.7 937.2 335.3L960 344L960 541L937.2 541C914.3 541 868.7 541 823 541C777.3 541 731.7 541 686 541C640.3 541 594.7 541 548.8 541C503 541 457 541 411.2 541C365.3 541 319.7 541 274 541C228.3 541 182.7 541 137 541C91.3 541 45.7 541 22.8 541L0 541Z" fill="#0F0F0F">
	</path>
	<path d="M0 393L22.8 388.7C45.7 384.3 91.3 375.7 137 390.2C182.7 404.7 228.3 442.3 274 440.7C319.7 439 365.3 398 411.2 394.7C457 391.3 503 425.7 548.8 432.2C594.7 438.7 640.3 417.3 686 396.8C731.7 376.3 777.3 356.7 823 355.7C868.7 354.7 914.3 372.3 937.2 381.2L960 390L960 541L937.2 541C914.3 541 868.7 541 823 541C777.3 541 731.7 541 686 541C640.3 541 594.7 541 548.8 541C503 541 457 541 411.2 541C365.3 541 319.7 541 274 541C228.3 541 182.7 541 137 541C91.3 541 45.7 541 22.8 541L0 541Z" fill="#0F0F0F">
	</path>
</svg>
