<svg xmlns="http://www.w3.org/2000/svg" xmlns:xlink="http://www.w3.org/1999/xlink" version="1.1" width="256" height="256" viewBox="0 0 256 256" xml:space="preserve">
	<defs>
	</defs>
	<g style="stroke: none; stroke-width: 0; stroke-dasharray: none; stroke-linecap: butt; stroke-linejoin: miter; stroke-miterlimit: 10; fill: none; fill-rule: nonzero; opacity: 1;" transform="translate(1.4065934065934016 1.4065934065934016) scale(2.81 2.81)">
		<path d="M 27.252 90.004 c -6.221 0 -12.069 -2.423 -16.468 -6.822 c -4.399 -4.398 -6.821 -10.246 -6.821 -16.467 s 2.423 -12.069 6.821 -16.468 l 45.131 -45.13 c 6.819 -6.818 17.913 -6.817 24.728 0 c 6.817 6.818 6.817 17.911 0 24.728 L 38.569 71.918 c -4.554 4.555 -11.965 4.555 -16.521 0 c -4.555 -4.555 -4.555 -11.966 0 -16.521 L 60.43 17.016 c 1.172 -1.172 3.071 -1.172 4.243 0 c 1.172 1.171 1.172 3.071 0 4.243 L 26.291 59.64 c -2.215 2.215 -2.215 5.82 0 8.036 c 2.214 2.215 5.819 2.214 8.035 0 l 42.073 -42.073 c 4.478 -4.478 4.478 -11.765 0 -16.243 c -4.48 -4.478 -11.765 -4.477 -16.243 0 l -45.13 45.129 c -3.265 3.266 -5.063 7.607 -5.063 12.226 c 0 4.618 1.799 8.96 5.063 12.225 c 3.266 3.265 7.608 5.064 12.225 5.064 c 4.618 0 8.96 -1.799 12.225 -5.064 l 41.439 -41.438 c 1.172 -1.172 3.071 -1.172 4.243 0 c 1.172 1.171 1.172 3.071 0 4.243 L 43.72 83.182 C 39.321 87.581 33.473 90.004 27.252 90.004 z" style="stroke: none; stroke-width: 1; stroke-dasharray: none; stroke-linecap: butt; stroke-linejoin: miter; stroke-miterlimit: 10; fill: rgba(0,0,0,0.5); fill-rule: nonzero; opacity: 1;" transform=" matrix(1 0 0 1 0 0) " stroke-linecap="round" />
	</g>
</svg>
