<svg width="24" height="24" viewBox="0 0 24 24" fill="none" xmlns="http://www.w3.org/2000/svg">
	<g clip-path="url(#clip0_6377_42787)">
		<path d="M12 0.375C5.58985 0.375 0.375 5.58985 0.375 12C0.375 18.4102 5.58985 23.625 12 23.625C18.4102 23.625 23.625 18.4102 23.625 12C23.625 5.58984 18.4102 0.375 12 0.375ZM12 21.375C6.83056 21.375 2.625 17.1694 2.625 12C2.625 6.83056 6.83056 2.625 12 2.625C17.1694 2.625 21.375 6.83056 21.375 12C21.375 17.1694 17.1694 21.375 12 21.375Z" fill="#939CA3" />
		<path d="M12 9.45605C11.3785 9.45605 10.875 9.95996 10.875 10.5811V17.7529C10.875 18.374 11.3785 18.8779 12 18.8779C12.6215 18.8779 13.125 18.374 13.125 17.7529V10.5811C13.125 9.95996 12.6215 9.45605 12 9.45605ZM12 5.12305C11.3785 5.12305 10.875 5.62696 10.875 6.24805V7.26611C10.875 7.88721 11.3785 8.39111 12 8.39111C12.6215 8.39111 13.125 7.8872 13.125 7.26611V6.24805C13.125 5.62695 12.6215 5.12305 12 5.12305Z" fill="#939CA3" />
	</g>
	<defs>
		<clipPath id="clip0_6377_42787">
			<rect width="24" height="24" fill="white" />
		</clipPath>
	</defs>
</svg>