<?xml version="1.0" encoding="UTF-8"?>
<svg version="1.1" xmlns="http://www.w3.org/2000/svg" width="512" height="512">
	<path d="M0 0 C2.61826111 -0.00015548 5.23652244 -0.00165257 7.8547821 -0.00440979 C13.30147379 -0.00708518 18.74794172 0.00613609 24.19458008 0.02954102 C30.44094967 0.05620111 36.68694756 0.05786646 42.93335468 0.04615265 C49.01599392 0.03528214 55.09848079 0.04173806 61.18111229 0.05570793 C63.73764857 0.06018163 66.29419567 0.06059552 68.8507328 0.05664253 C86.195243 0.04236406 102.38565831 0.9931609 119.07421875 6.12109375 C120.31437744 6.50177002 120.31437744 6.50177002 121.57958984 6.89013672 C138.92758506 12.45110918 162.79863899 22.01646633 171.94921875 38.68359375 C174.47559335 45.16795521 174.01090976 51.4201006 171.26171875 57.74609375 C168.14095827 63.40804491 163.3263779 67.23156942 157.12109375 69.1328125 C149.87634244 70.5022472 143.08065361 69.06109791 136.96484375 65.01953125 C136.1965625 64.45492187 135.42828125 63.8903125 134.63671875 63.30859375 C125.49374194 56.63478506 115.34544843 51.84858313 104.51171875 48.62109375 C103.5525354 48.33468018 103.5525354 48.33468018 102.57397461 48.04248047 C88.56245286 44.17057555 74.66869395 44.1847282 60.25 44.1953125 C58.02483542 44.19141607 55.79967158 44.18707948 53.57450867 44.18232727 C48.9257058 44.17489852 44.27697891 44.17513138 39.62817383 44.18041992 C33.71915069 44.18620145 27.81044234 44.1692987 21.90147114 44.14607525 C17.30875378 44.13122271 12.71611016 44.1304819 8.12337303 44.13358498 C5.94724086 44.13307725 3.77110395 44.12794475 1.5949955 44.11777306 C-27.13506969 43.9999657 -55.52867349 48.83166079 -77.80078125 68.49609375 C-78.60644531 69.1715625 -79.41210938 69.84703125 -80.2421875 70.54296875 C-99.99395328 87.55059608 -113.456607 112.37509696 -115.80078125 138.49609375 C-116.07317772 144.01105706 -116.22601369 149.52732822 -116.37109375 155.046875 C-116.41374674 156.54839187 -116.45679363 158.0498976 -116.50024414 159.5513916 C-116.60496588 163.19950842 -116.70435269 166.84774719 -116.80078125 170.49609375 C-115.7567942 170.49332837 -114.71280716 170.49056299 -113.63718414 170.48771381 C-88.23160437 170.42110737 -62.82603592 170.37181275 -37.42038727 170.34065723 C-25.13439327 170.3251901 -12.84845697 170.30410343 -0.5625 170.26977539 C10.14626304 170.23986844 20.8549843 170.22051763 31.56378794 170.21382827 C37.23371459 170.20991823 42.9035217 170.20073211 48.57341003 170.17890358 C53.91180543 170.15851808 59.25003221 170.15226418 64.58846283 170.15677071 C66.54598151 170.15594644 68.50350592 170.14999316 70.46099091 170.13847733 C73.13838422 170.12350095 75.81514506 170.12715887 78.49255371 170.1353302 C79.26300443 170.12659168 80.03345515 170.11785315 80.82725286 170.10884982 C88.20492141 170.16950419 94.85239234 172.14926734 100.19921875 177.49609375 C104.43452939 183.620124 105.95410738 189.06852888 105.19921875 196.49609375 C103.78353888 202.14840382 101.45124672 207.24702768 96.52734375 210.65234375 C92.02775053 213.34440807 88.32590367 214.61818664 83.13737869 214.62752151 C81.93106131 214.63328323 81.93106131 214.63328323 80.70037389 214.63916135 C79.8225641 214.63829487 78.94475432 214.63742838 78.04034424 214.63653564 C77.10335402 214.63950677 76.16636381 214.64247789 75.20097995 214.64553905 C72.05357399 214.65422761 68.90620607 214.65573443 65.75878906 214.65722656 C63.50519733 214.66185462 61.25160639 214.66687927 58.99801636 214.67227173 C52.86981263 214.68539886 46.74161986 214.6918413 40.61340427 214.69628239 C36.78538681 214.69921259 32.95737234 214.7033173 29.12935638 214.70778656 C18.52635956 214.71989531 7.92336535 214.7302774 -2.67963791 214.73366165 C-3.35803552 214.73388122 -4.03643312 214.73410078 -4.73538823 214.734327 C-5.4153902 214.73454528 -6.09539216 214.73476356 -6.79600024 214.73498845 C-8.173896 214.73543191 -9.55179175 214.73587848 -10.9296875 214.73632812 C-11.61316841 214.73654955 -12.29664932 214.73677098 -13.00084177 214.73699912 C-24.0723732 214.74094602 -35.14383876 214.75839731 -46.21534476 214.78168765 C-57.58795981 214.80541788 -68.96053072 214.81760643 -80.33317494 214.81902957 C-86.71620179 214.82007801 -93.09913574 214.82599435 -99.48213959 214.84384918 C-105.48706294 214.86031951 -111.49182345 214.86249031 -117.49676132 214.85371017 C-119.69938722 214.85293925 -121.90202183 214.85728978 -124.1046257 214.86716843 C-127.11460176 214.87987521 -130.12399999 214.87401773 -133.13397217 214.86358643 C-134.00285907 214.87164283 -134.87174596 214.87969923 -135.76696277 214.88799977 C-143.4330739 214.82598671 -150.20635454 213.09052046 -155.80078125 207.49609375 C-159.50586419 202.13874409 -160.91977999 197.61146333 -160.94604492 191.17114258 C-160.95242477 190.10515335 -160.95880463 189.03916412 -160.96537781 187.94087219 C-160.96649063 186.78991562 -160.96760345 185.63895905 -160.96875 184.453125 C-160.9720784 183.25612473 -160.9754068 182.05912445 -160.97883606 180.82585144 C-160.98390286 178.28470239 -160.98624446 175.74354668 -160.98608398 173.20239258 C-160.98824742 169.36853548 -161.00634158 165.53497717 -161.02539062 161.70117188 C-161.13103285 116.48335013 -149.53420427 77.69053993 -117.80078125 44.49609375 C-117.13175781 43.76390625 -116.46273437 43.03171875 -115.7734375 42.27734375 C-105.51486793 31.42656625 -92.88272147 23.49565586 -79.80078125 16.49609375 C-78.61548828 15.82513672 -78.61548828 15.82513672 -77.40625 15.140625 C-72.00421711 12.21728321 -66.30448037 10.0525787 -60.55078125 7.93359375 C-59.82036621 7.65249756 -59.08995117 7.37140137 -58.33740234 7.08178711 C-39.44351832 0.37354148 -19.8142113 -0.09732741 0 0 Z " fill="#000000" transform="translate(202.80078125,255.50390625)" />
	<path d="M0 0 C1.72698705 1.49961746 3.43632986 3.01986266 5.125 4.5625 C5.90359375 5.25988281 6.6821875 5.95726563 7.484375 6.67578125 C20.75852906 19.19468172 29.72978854 35.95956768 34.125 53.5625 C34.35058594 54.45582031 34.57617188 55.34914063 34.80859375 56.26953125 C39.87327649 80.68479494 35.01279367 106.71538186 21.9609375 127.83203125 C7.49494863 149.34634235 -12.69955114 164.28515711 -37.875 170.5625 C-38.69226563 170.78679687 -39.50953125 171.01109375 -40.3515625 171.2421875 C-64.64596422 176.87231869 -91.39857949 171.10173018 -112.42407227 158.30444336 C-133.98520354 144.42018625 -148.79387611 122.32553816 -154.875 97.5625 C-160.39072024 70.26595268 -155.081866 43.70579606 -139.875 20.5625 C-137.04559608 16.72816985 -134.05261991 13.11190725 -130.875 9.5625 C-130.32457031 8.92957031 -129.77414063 8.29664062 -129.20703125 7.64453125 C-96.51374578 -27.6319274 -36.77281921 -29.2754483 0 0 Z M-99.875 40.5625 C-105.1797261 47.50472538 -109.95599849 54.94412713 -111.875 63.5625 C-112.05546875 64.32304688 -112.2359375 65.08359375 -112.421875 65.8671875 C-114.8465702 80.28994345 -112.08565724 94.46258406 -103.875 106.5625 C-95.07905709 117.92582521 -84.00835843 125.44204227 -69.875 128.5625 C-52.47351882 130.10877698 -38.06950182 126.89125151 -24.4375 115.53125 C-14.49116648 106.25696604 -8.26828102 94.62397875 -7.59765625 81 C-7.35143633 72.54088501 -7.2888201 64.38689251 -10.875 56.5625 C-11.2771875 55.675625 -11.679375 54.78875 -12.09375 53.875 C-19.28422706 39.49404588 -30.33615509 30.41365512 -45.46484375 25.2890625 C-46.26019531 25.04929688 -47.05554688 24.80953125 -47.875 24.5625 C-48.4834375 24.36914062 -49.091875 24.17578125 -49.71875 23.9765625 C-67.6964346 20.52432596 -87.74647069 26.77312704 -99.875 40.5625 Z " fill="#000000" transform="translate(294.875,62.4375)" />
	<path d="M0 0 C5.22053859 3.24104164 9.77391827 8.28367281 11.55078125 14.234375 C12.74048831 21.54672083 11.47580171 27.03426587 7.47593498 33.1782589 C5.0674785 36.50703498 2.28030952 39.36007625 -0.63452148 42.24536133 C-1.27910309 42.89519989 -1.92368469 43.54503845 -2.58779907 44.21456909 C-4.69953825 46.33940642 -6.82193462 48.45320447 -8.9453125 50.56640625 C-10.42638747 52.04950437 -11.90701704 53.5330474 -13.38722229 55.01701355 C-16.48156907 58.11576948 -19.58124199 61.20906895 -22.68481445 64.29858398 C-26.65722394 68.25387277 -30.6159722 72.2225187 -34.5708456 76.19533253 C-37.62207083 79.25740797 -40.6804172 82.31229037 -43.74095345 85.36505699 C-45.20355339 86.82565993 -46.66393979 88.28848301 -48.12203789 89.75358009 C-50.16068427 91.7998643 -52.20873437 93.83625429 -54.25952148 95.87036133 C-54.85659409 96.47350662 -55.45366669 97.07665192 -56.0688324 97.69807434 C-61.45363527 103.00222039 -66.14397954 105.66539737 -73.88671875 105.734375 C-75.03914063 105.7653125 -76.1915625 105.79625 -77.37890625 105.828125 C-86.81914841 104.2852037 -93.28028336 96.42526963 -99.75 89.9296875 C-100.7623495 88.92190889 -101.7750669 87.91449973 -102.78813171 86.90744019 C-104.89838808 84.80606871 -107.00294388 82.6991868 -109.10375977 80.58837891 C-111.78617019 77.89445074 -114.4841656 75.21676165 -117.18685627 72.54319954 C-119.2778075 70.47065207 -121.35930794 68.38880965 -123.43822289 66.3041954 C-124.42904118 65.31322459 -125.42293453 64.3253178 -126.42003822 63.34067154 C-137.23757434 52.63943734 -137.23757434 52.63943734 -138.4453125 44.20703125 C-138.45554707 36.58227951 -137.70698268 31.12961792 -132.3515625 25.484375 C-127.1893194 21.07473819 -121.73907605 19.52900379 -115.01171875 19.234375 C-106.36753432 19.97828072 -100.53274583 25.40680583 -94.73828125 31.3125 C-94.16967377 31.88393738 -93.60106628 32.45537476 -93.01522827 33.04412842 C-91.21760052 34.85286391 -89.42709106 36.66846037 -87.63671875 38.484375 C-86.41192383 39.71921188 -85.18666782 40.95359161 -83.9609375 42.1875 C-80.97250741 45.19786551 -77.99043679 48.21440048 -75.01171875 51.234375 C-71.38479558 49.70778403 -69.12140936 47.55861279 -66.38598633 44.75634766 C-65.47436234 43.82843414 -64.56273834 42.90052063 -63.62348938 41.94448853 C-63.14043146 41.44832661 -62.65737354 40.95216469 -62.15967751 40.44096756 C-60.6379084 38.87961886 -59.10859894 37.32603963 -57.576828 35.77450562 C-53.22346682 31.36327049 -48.87977182 26.94270987 -44.55151367 22.50683594 C-41.89938025 19.78986102 -39.23486024 17.08555187 -36.56241417 14.38856125 C-35.55189037 13.36387476 -34.54604364 12.33455197 -33.54523659 11.30037308 C-24.06408731 1.50768976 -13.86262976 -5.88953409 0 0 Z " fill="#000000" transform="translate(458.01171875,342.765625)" />
</svg>
