<svg width="16" height="20" viewBox="0 0 16 20" fill="none" xmlns="http://www.w3.org/2000/svg">
	<path id="Vector" d="M15.5 10C15.5 9.75136 15.4012 9.5129 15.2254 9.33709C15.0496 9.16127 14.8111 9.0625 14.5625 9.0625H7.44688L9.60312 6.91562C9.69054 6.82821 9.75987 6.72444 9.80718 6.61023C9.85449 6.49603 9.87883 6.37362 9.87883 6.25C9.87883 6.12638 9.85449 6.00397 9.80718 5.88977C9.75987 5.77556 9.69054 5.67179 9.60312 5.58437C9.51571 5.49696 9.41194 5.42763 9.29773 5.38032C9.18353 5.33301 9.06112 5.30866 8.9375 5.30866C8.81388 5.30866 8.69147 5.33301 8.57727 5.38032C8.46306 5.42763 8.35929 5.49696 8.27187 5.58437L4.52187 9.33437C4.43652 9.42353 4.36962 9.52867 4.325 9.64375C4.23123 9.87199 4.23123 10.128 4.325 10.3562C4.36962 10.4713 4.43652 10.5765 4.52187 10.6656L8.27187 14.4156C8.35903 14.5035 8.46272 14.5732 8.57696 14.6208C8.6912 14.6684 8.81374 14.6929 8.9375 14.6929C9.06126 14.6929 9.1838 14.6684 9.29804 14.6208C9.41228 14.5732 9.51597 14.5035 9.60312 14.4156C9.691 14.3285 9.76074 14.2248 9.80834 14.1105C9.85593 13.9963 9.88044 13.8738 9.88044 13.75C9.88044 13.6262 9.85593 13.5037 9.80834 13.3895C9.76074 13.2752 9.691 13.1715 9.60312 13.0844L7.44688 10.9375H14.5625C14.8111 10.9375 15.0496 10.8387 15.2254 10.6629C15.4012 10.4871 15.5 10.2486 15.5 10ZM12.6875 0.625H3.3125C2.56658 0.625 1.85121 0.921316 1.32376 1.44876C0.796316 1.97621 0.5 2.69158 0.5 3.4375V16.5625C0.5 17.3084 0.796316 18.0238 1.32376 18.5512C1.85121 19.0787 2.56658 19.375 3.3125 19.375H12.6875C13.4334 19.375 14.1488 19.0787 14.6762 18.5512C15.2037 18.0238 15.5 17.3084 15.5 16.5625V13.75C15.5 13.5014 15.4012 13.2629 15.2254 13.0871C15.0496 12.9113 14.8111 12.8125 14.5625 12.8125C14.3139 12.8125 14.0754 12.9113 13.8996 13.0871C13.7238 13.2629 13.625 13.5014 13.625 13.75V16.5625C13.625 16.8111 13.5262 17.0496 13.3504 17.2254C13.1746 17.4012 12.9361 17.5 12.6875 17.5H3.3125C3.06386 17.5 2.8254 17.4012 2.64959 17.2254C2.47377 17.0496 2.375 16.8111 2.375 16.5625V3.4375C2.375 3.18886 2.47377 2.9504 2.64959 2.77459C2.8254 2.59877 3.06386 2.5 3.3125 2.5H12.6875C12.9361 2.5 13.1746 2.59877 13.3504 2.77459C13.5262 2.9504 13.625 3.18886 13.625 3.4375V6.25C13.625 6.49864 13.7238 6.7371 13.8996 6.91291C14.0754 7.08873 14.3139 7.1875 14.5625 7.1875C14.8111 7.1875 15.0496 7.08873 15.2254 6.91291C15.4012 6.7371 15.5 6.49864 15.5 6.25V3.4375C15.5 2.69158 15.2037 1.97621 14.6762 1.44876C14.1488 0.921316 13.4334 0.625 12.6875 0.625Z" fill="#3987ba" />
</svg>
