<svg width="18" height="14" viewBox="0 0 18 14" fill="none" xmlns="http://www.w3.org/2000/svg">
	<path id="Vector" d="M9.25803 7.18038C9.69518 6.80197 10.0458 6.33395 10.2861 5.80808C10.5265 5.28221 10.6508 4.71079 10.6508 4.1326C10.6508 3.04615 10.2192 2.0042 9.451 1.23596C8.68276 0.467724 7.64081 0.036133 6.55435 0.036133C5.4679 0.036133 4.42595 0.467724 3.65771 1.23596C2.88947 2.0042 2.45788 3.04615 2.45788 4.1326C2.45788 4.71079 2.58225 5.28221 2.82257 5.80808C3.06289 6.33395 3.41353 6.80197 3.85068 7.18038C2.70379 7.69972 1.73073 8.53838 1.04786 9.5961C0.364992 10.6538 0.00120588 11.8858 0 13.1448C0 13.3621 0.0863182 13.5705 0.239966 13.7242C0.393613 13.8778 0.602004 13.9641 0.819294 13.9641C1.03658 13.9641 1.24498 13.8778 1.39862 13.7242C1.55227 13.5705 1.63859 13.3621 1.63859 13.1448C1.63859 11.8411 2.1565 10.5908 3.07838 9.66887C4.00027 8.74699 5.25061 8.22908 6.55435 8.22908C7.8581 8.22908 9.10844 8.74699 10.0303 9.66887C10.9522 10.5908 11.4701 11.8411 11.4701 13.1448C11.4701 13.3621 11.5564 13.5705 11.7101 13.7242C11.8637 13.8778 12.0721 13.9641 12.2894 13.9641C12.5067 13.9641 12.7151 13.8778 12.8687 13.7242C13.0224 13.5705 13.1087 13.3621 13.1087 13.1448C13.1075 11.8858 12.7437 10.6538 12.0608 9.5961C11.378 8.53838 10.4049 7.69972 9.25803 7.18038ZM6.55435 6.59049C6.06823 6.59049 5.59302 6.44633 5.18883 6.17626C4.78463 5.90618 4.4696 5.52231 4.28357 5.0732C4.09754 4.62408 4.04886 4.12988 4.1437 3.6531C4.23854 3.17631 4.47263 2.73836 4.81637 2.39462C5.16011 2.05088 5.59806 1.81679 6.07485 1.72195C6.55163 1.62711 7.04583 1.67579 7.49495 1.86182C7.94407 2.04785 8.32793 2.36288 8.59801 2.76708C8.86808 3.17127 9.01224 3.64648 9.01224 4.1326C9.01224 4.78448 8.75328 5.40965 8.29234 5.87059C7.8314 6.33153 7.20623 6.59049 6.55435 6.59049ZM14.5343 6.85266C15.0586 6.26222 15.4011 5.53282 15.5205 4.75227C15.64 3.97171 15.5313 3.17327 15.2075 2.45305C14.8838 1.73283 14.3588 1.12153 13.6957 0.692734C13.0326 0.263938 12.2598 0.0359218 11.4701 0.036133C11.2528 0.036133 11.0444 0.122451 10.8908 0.276099C10.7371 0.429746 10.6508 0.638137 10.6508 0.855427C10.6508 1.07272 10.7371 1.28111 10.8908 1.43476C11.0444 1.5884 11.2528 1.67472 11.4701 1.67472C12.122 1.67472 12.7472 1.93368 13.2081 2.39462C13.669 2.85556 13.928 3.48073 13.928 4.1326C13.9268 4.56293 13.8127 4.98541 13.5971 5.35779C13.3814 5.73018 13.0717 6.03941 12.6991 6.25458C12.5776 6.32464 12.4761 6.42471 12.4044 6.54521C12.3327 6.66571 12.2931 6.8026 12.2894 6.94278C12.286 7.08187 12.318 7.21954 12.3825 7.34281C12.447 7.46608 12.5419 7.5709 12.6581 7.64738L12.9776 7.86039L13.0841 7.91774C14.0717 8.38615 14.9049 9.12702 15.4855 10.0531C16.0661 10.9791 16.3699 12.0518 16.3613 13.1448C16.3613 13.3621 16.4476 13.5705 16.6013 13.7242C16.7549 13.8778 16.9633 13.9641 17.1806 13.9641C17.3979 13.9641 17.6063 13.8778 17.7599 13.7242C17.9136 13.5705 17.9999 13.3621 17.9999 13.1448C18.0066 11.8876 17.6917 10.6495 17.0851 9.54819C16.4786 8.4469 15.6005 7.519 14.5343 6.85266Z" fill="#000" />
</svg>
